<svg xmlns="http://www.w3.org/2000/svg" xmlns:xlink="http://www.w3.org/1999/xlink" version="1.1" x="0px" y="0px" viewBox="0 0 100 100" enable-background="new 0 0 100 100" xml:space="preserve"><path d="M50,12.25c-20.849,0-37.75,16.901-37.75,37.75c0,20.85,16.901,37.75,37.75,37.75c20.85,0,37.75-16.9,37.75-37.75  C87.75,29.151,70.85,12.25,50,12.25z M50,79c-7.146,0-13.791,3.857-19.329,0.184C21.226,72.915,15,62.186,15,50  c0-19.33,15.67-35,35-35s35,15.67,35,35c0,12.191-6.232,22.926-15.686,29.191C63.777,82.861,57.139,79,50,79z"></path><polygon points="66.21,36.919 44.313,58.815 33.791,48.293 31.669,50.414 42.192,60.938 42.169,60.96 44.29,63.081 44.313,63.059   46.435,60.937 68.331,39.041 "></polygon></svg>