<svg xmlns="http://www.w3.org/2000/svg" xmlns:xlink="http://www.w3.org/1999/xlink" version="1.1" x="0px" y="0px" viewBox="0 0 100 100" enable-background="new 0 0 100 100" xml:space="preserve"><g><path d="M67.768,18.727H32.232c-7.447,0-13.505,6.059-13.505,13.505v35.537c0,7.446,6.059,13.505,13.505,13.505h35.536   c7.447,0,13.506-6.059,13.506-13.505V32.231C81.273,24.785,75.215,18.727,67.768,18.727z M61.021,28.728   c0-1.212,0.992-2.204,2.205-2.204h6.614c1.213,0,2.205,0.992,2.205,2.204v6.615c0,1.212-0.992,2.204-2.205,2.204h-6.614   c-1.213,0-2.205-0.992-2.205-2.204V28.728z M67.768,77.954H32.232c-5.616,0-10.186-4.569-10.186-10.186V41.314h14.565   c3.165-3.886,7.986-6.368,13.388-6.368c5.402,0,10.224,2.482,13.389,6.368h14.564v26.454   C77.953,73.385,73.385,77.954,67.768,77.954z"></path><circle cx="50" cy="51.335" r="14.386"></circle></g></svg>