<svg xmlns="http://www.w3.org/2000/svg" xmlns:xlink="http://www.w3.org/1999/xlink" version="1.1" x="0px" y="0px" viewBox="0 0 100 100" enable-background="new 0 0 100 100" xml:space="preserve"><line fill="#000000" stroke="#010101" stroke-width="2" stroke-miterlimit="10" x1="50.18" y1="9.146" x2="50.18" y2="15.747"></line><rect x="84.184" y="47.076" fill="#000000" width="6.602" height="2.2"></rect><rect x="79.783" y="26.336" transform="matrix(-0.5 -0.866 0.866 -0.5 95.6601 114.5021)" fill="#000000" width="2.201" height="6.6"></rect><line fill="#000000" stroke="#010101" stroke-width="2" stroke-miterlimit="10" x1="7.691" y1="48.177" x2="14.291" y2="48.177"></line><line fill="#000000" stroke="#010101" stroke-width="2" stroke-miterlimit="10" x1="50.18" y1="84.635" x2="50.18" y2="91.234"></line><rect x="65.854" y="81.868" transform="matrix(-0.5001 -0.8659 0.8659 -0.5001 31.8967 184.3475)" fill="#000000" width="6.6" height="2.199"></rect><rect x="79.743" y="67.17" transform="matrix(-0.8661 -0.4998 0.4998 -0.8661 120.8441 168.9086)" fill="#000000" width="6.602" height="2.201"></rect><rect x="48.916" y="9.146" fill="#000000" width="2.2" height="6.601"></rect><rect x="9.409" y="47.076" fill="#000000" width="6.601" height="2.2"></rect><rect x="16.01" y="28.533" transform="matrix(-0.866 -0.5 0.5 -0.866 21.2163 64.9521)" fill="#000000" width="6.6" height="2.201"></rect><rect x="29.391" y="16.297" transform="matrix(-0.4997 -0.8662 0.8662 -0.4997 33.9561 54.4074)" fill="#000000" width="6.599" height="2.2"></rect><rect x="48.916" y="84.635" fill="#000000" width="2.2" height="6.6"></rect><rect x="29.937" y="79.676" transform="matrix(-0.8659 -0.5002 0.5002 -0.8659 16.4085 170.3478)" fill="#000000" width="2.2" height="6.598"></rect><rect x="16.053" y="64.97" transform="matrix(-0.4997 -0.8662 0.8662 -0.4997 -33.4119 117.2422)" fill="#000000" width="2.201" height="6.6"></rect><path fill="#000000" d="M85.215,15.909l5.245-5.245L75.34,8.886l1.776,15.12l4.973-4.97C89.829,27.134,94.6,38.094,94.6,50.155  c0,24.869-20.23,45.101-45.099,45.101C24.632,95.256,4.4,75.023,4.4,50.155s20.232-45.1,45.101-45.1c0.159,0,0.314,0.01,0.473,0.012  v-4.4c-0.158-0.001-0.314-0.012-0.473-0.012C22.162,0.655,0,22.817,0,50.155c0,27.338,22.162,49.5,49.501,49.5  C76.838,99.654,99,77.493,99,50.155C99,36.859,93.745,24.801,85.215,15.909z"></path><path fill="#000000" d="M64.68,33.102c-5.479-2.536-12.644-0.15-15.178,5.315c-2.536-5.465-9.701-7.854-15.178-5.315  c-5.834,2.706-8.625,9.619-4.016,17.774c3.272,5.803,9.074,10.174,19.194,18.015c10.119-7.841,15.922-12.215,19.192-18.015  C73.303,42.721,70.513,35.808,64.68,33.102z"></path></svg>