<svg xmlns="http://www.w3.org/2000/svg" xmlns:xlink="http://www.w3.org/1999/xlink" version="1.1" x="0px" y="0px" viewBox="0 0 50 50" enable-background="new 0 0 50 50" xml:space="preserve"><g><path fill="#000000" d="M32.913,37.945c-2.654,0.969-3.091,0.826-3.486,0.541c-0.169-0.121-0.215-0.229-0.236-0.311   c-0.027-0.129-0.122-0.807-0.122-4.092V22.918h5.579v-9.047h-5.579V2.04l-10.73,6.241v5.591h-3.749v9.047h3.749v12.179   c0,2.996,0.094,4.951,0.277,5.953c0.239,1.523,0.698,2.771,1.363,3.713c0.689,0.98,1.751,1.771,3.147,2.357   c1.33,0.557,2.835,0.84,4.472,0.84c2.561,0,4.897-0.445,6.948-1.326l0.865-0.369l-0.976-8.877L32.913,37.945z M27.598,45.424   c-1.296,0-2.473-0.215-3.49-0.643c-0.951-0.396-1.642-0.896-2.054-1.479c-0.437-0.621-0.749-1.51-0.938-2.678   c-0.108-0.596-0.239-2.039-0.239-5.523v-14.72h-3.749v-3.967h3.749V9.745l5.65-3.287v9.957h5.578v3.967h-5.578v13.707   c0,3.457,0.098,4.314,0.2,4.713c0.181,0.703,0.601,1.307,1.219,1.752c1.035,0.74,2.255,0.852,4.31,0.277l0.417,3.807   C31.155,45.158,29.452,45.424,27.598,45.424z"></path></g></svg>